:FULLY-SPECIFIED
:DEGREES
141
root -0.567874014377594 -0.567874014377594 -0.567874014377594 -0.5678755879732001 -0.5678755879732001 -0.5678755879732001
lhipjoint -9.671654586443837e-08 -1.5341245206083327e-07 1.0672170578144923e-06
lfemur -14.65986894957744 -4.456561402763096 -16.331378456472347
ltibia 24.03590014213843 -1.2847167198181923e-06 4.240190314694898e-07
lfoot -20.138840088539276 -6.22770315959023e-07 14.101350720767158
ltoes -59.151207231305456 -7.916169566670632e-07 9.452303180060151e-07
rhipjoint 1.1005675908711953e-07 6.870210827458292e-07 -1.494104084495789e-06
rfemur -2.92546543072143 5.126288771639527 12.934491448245934
rtibia 0.8208113133996711 3.1114654004508935e-08 -8.456411460421538e-07
rfoot -18.256207726851983 2.016635937336058e-06 -16.3490191275512
rtoes -2.9555317100044145 -1.0727267963002852e-06 -2.557885023699053e-07
lowerback 19.67218448897108 1.2668772543540108 -0.3303352956989231
upperback -0.556674184456085 1.7499215726705353 1.7729263968470788
thorax -12.108172601136854 0.9630429058717521 1.7274098027747022
lowerneck -11.457395592112624 -2.029057957114028 -1.9248847656666397
upperneck 23.5797988923852 -3.0151462414105206 2.3060364286666197
head 9.370881229926802 -1.331763944747426 0.7745436119620046
lclavicle -1.4085775951116125e-07 5.4855408257763046e-08 -1.0938974842598547e-06
lhumerus -24.56869075589257 19.26606827111129 42.63576200689044
lradius 45.532107139528925 -8.931746629788133e-07 2.0933716789139186e-06
lwrist -9.70406672864732e-07 -46.099620727476115 2.3398712313922036e-07
lhand -4.562975323145072 2.6246558075710764e-07 -26.656099019086014
lfingers 7.125022823272814 9.845282338726802e-08 3.18924141240953e-07
lthumb 21.213298854421275 -1.2803152392500461e-07 2.20318914769186
rclavicle 1.398304276268298e-07 4.3880174074018323e-07 -1.3740421654916584e-06
rhumerus -28.548496843739137 -21.803302547758022 -29.393411734637223
rradius 54.93159490924703 -2.8712586135765402e-06 -6.072245381869278e-06
rwrist 3.675949481983915e-07 38.62274583175197 8.217341123901528e-07
rhand -6.972260092956778 2.0321462048512455e-07 -36.68780446630613
rfingers 7.125022396385991 5.1024341088409163e-08 -3.1892353057445414e-07
rthumb 18.897492480477187 1.5447771905696147e-06 -65.78980959509936
142
root -0.567874014377594 -0.567874014377594 -0.567874014377594 -0.5678755879732001 -0.5678755879732001 -0.5678755879732001
lhipjoint -9.671654586443837e-08 -1.5341245206083327e-07 1.0672170578144923e-06
lfemur -13.83143189005201 -5.261949135160674 -16.001070508210532
ltibia 23.761439235625225 -1.2125514098731574e-06 4.342166531113854e-07
lfoot -20.158949873003085 -3.623212577588381e-07 14.64410487297305
ltoes -59.63699760583344 -2.839887250642581e-07 1.8147571243727105e-06
rhipjoint 1.1005675908711953e-07 6.870210827458292e-07 -1.494104084495789e-06
rfemur -2.428869483483071 5.183621379532614 13.45137284387582
rtibia 1.296410992325146 6.1075351881708e-08 -2.548396792973311e-06
rfoot -18.575039249760884 1.5108457101170144e-06 -16.1886462858393
rtoes -2.3947326248981704 6.774719889257028e-07 -2.433981808861713e-07
lowerback 17.760730436533624 1.3559291540309313 -0.07995410771278331
upperback -0.32108695275846144 1.8944902104166714 1.7813001020478085
thorax -11.091924976229935 1.037642338708337 1.6204765745723941
lowerneck -11.457395592112624 -2.029057957114028 -1.9248847656666397
upperneck 23.5797988923852 -3.0151462414105206 2.3060364286666197
head 9.370881229926802 -1.331763944747426 0.7745436119620046
lclavicle -1.4085775951116125e-07 5.4855408257763046e-08 -1.0938974842598547e-06
lhumerus -24.321986030619 17.51506560756119 52.74677790320545
lradius 47.871047364191845 3.0874402537202416e-07 1.9331702438299704e-06
lwrist -9.847356569267866e-07 -46.44533758250548 2.3744293574503646e-07
lhand -4.562975323145072 2.6246558075710764e-07 -26.656099019086014
lfingers 7.125022823272814 9.845282338726802e-08 3.18924141240953e-07
lthumb 21.213298854421275 -1.2803152392500461e-07 2.20318914769186
rclavicle 1.398304276268298e-07 4.3880174074018323e-07 -1.3740421654916584e-06
rhumerus -27.7004725092214 -19.000122902945797 -37.029604207846496
rradius 58.544631791494965 -2.247110226885133e-06 -7.671661550311691e-06
rwrist 3.769146095260159e-07 39.22057862942485 8.42564557332118e-07
rhand -6.972260092956778 2.0321462048512455e-07 -36.68780446630613
rfingers 7.125022396385991 5.1024341088409163e-08 -3.1892353057445414e-07
rthumb 18.897492480477187 1.5447771905696147e-06 -65.78980959509936
143
root -0.567874014377594 -0.567874014377594 -0.567874014377594 -0.5678755879732001 -0.5678755879732001 -0.5678755879732001
lhipjoint -9.671654586443837e-08 -1.5341245206083327e-07 1.0672170578144923e-06
lfemur -13.457043608434223 -6.088555277101719 -15.509780123853393
ltibia 23.704705976831807 -1.624510490434786e-06 3.4669470916449626e-07
lfoot -20.190030648821228 1.3990550652841857e-06 15.18065550586528
ltoes -59.749531802598575 -6.419872782333005e-07 3.162571163739148e-06
rhipjoint 1.1005675908711953e-07 6.870210827458292e-07 -1.494104084495789e-06
rfemur -2.7804466408203075 5.158296318750676 13.921455490860069
rtibia 2.7684805762812683 1.0423044091055249e-07 2.9344223685509723e-08
rfoot -19.047524415785688 2.2413852284584985e-06 -15.691488768985119
rtoes -1.8245894141205263 7.207519592535602e-07 -1.576774995553635e-07
lowerback 15.692368155840757 1.4831890252031974 0.06444977840005271
upperback 0.07362944592284407 2.032855542292555 1.6704324714401615
thorax -9.846902726394378 1.1090996710833048 1.4484649837930872
lowerneck -11.457395592112624 -2.029057957114028 -1.9248847656666397
upperneck 23.5797988923852 -3.0151462414105206 2.3060364286666197
head 9.370881229926802 -1.331763944747426 0.7745436119620046
lclavicle -1.4085775951116125e-07 5.4855408257763046e-08 -1.0938974842598547e-06
lhumerus -23.915582944814073 14.813387696457232 61.963325886193935
lradius 50.444737775533525 -9.749933889375267e-07 2.7470571899322664e-06
lwrist -9.68596352028918e-07 -46.05554210166744 2.335533209251062e-07
lhand -4.562975323145072 2.6246558075710764e-07 -26.656099019086014
lfingers 7.125022823272814 9.845282338726802e-08 3.18924141240953e-07
lthumb 21.213298854421275 -1.2803152392500461e-07 2.20318914769186
rclavicle 1.398304276268298e-07 4.3880174074018323e-07 -1.3740421654916584e-06
rhumerus -26.883335997677754 -14.850193878347138 -44.89086848968062
rradius 62.413298748714375 -2.3507684223973965e-06 -9.801641057387131e-06
rwrist 3.7663197271480233e-07 39.20256400548894 8.419302783953218e-07
rhand -6.972260092956778 2.0321462048512455e-07 -36.68780446630613
rfingers 7.125022396385991 5.1024341088409163e-08 -3.1892353057445414e-07
rthumb 18.897492480477187 1.5447771905696147e-06 -65.78980959509936
144
root -0.567874014377594 -0.567874014377594 -0.567874014377594 -0.5678755879732001 -0.5678755879732001 -0.5678755879732001
lhipjoint -9.671654586443837e-08 -1.5341245206083327e-07 1.0672170578144923e-06
lfemur -13.999317086077276 -6.677902845391324 -15.019710635810393
ltibia 24.317643737854166 -1.1747513571503994e-06 -4.405736913643202e-07
lfoot -20.347476754473778 -1.055489207704251e-06 15.488273565704315
ltoes -59.62462130305738 -7.114628058064404e-07 2.0589620465927256e-06
rhipjoint 1.1005675908711953e-07 6.870210827458292e-07 -1.494104084495789e-06
rfemur -4.483568824514974 4.837016173024324 14.298697084003628
rtibia 5.840673624856793 2.9229877655823616e-07 -7.844513450807881e-07
rfoot -19.82860777379542 7.518021624980041e-07 -14.61016054034538
rtoes -1.4485189849762126 7.4862450848241e-07 -1.1912576726140715e-07
lowerback 13.87593569513652 1.6655005412508834 -0.003155413577532001
upperback 0.5458003098540132 2.1652660164292454 1.4583414373329255
thorax -8.629097072854028 1.1811307393485535 1.2757018587616673
lowerneck -11.457395592112624 -2.029057957114028 -1.9248847656666397
upperneck 23.5797988923852 -3.0151462414105206 2.3060364286666197
head 9.370881229926802 -1.331763944747426 0.7745436119620046
lclavicle -1.4085775951116125e-07 5.4855408257763046e-08 -1.0938974842598547e-06
lhumerus -23.4333425611072 10.71125633567032 70.25514138764356
lradius 53.81305922510365 -2.1430811532525733e-07 3.6112256013271316e-06
lwrist -9.137242013313117e-07 -44.673832398614294 2.203205086729087e-07
lhand -4.562975323145072 2.6246558075710764e-07 -26.656099019086014
lfingers 7.125022823272814 9.845282338726802e-08 3.18924141240953e-07
lthumb 21.213298854421275 -1.2803152392500461e-07 2.20318914769186
rclavicle 1.398304276268298e-07 4.3880174074018323e-07 -1.3740421654916584e-06
rhumerus -26.43222932375509 -9.177045583923718 -53.22589176781975
rradius 67.08365232957486 -2.82603590956037e-06 -1.1273161676978282e-05
rwrist 3.6773239904950563e-07 38.631560190875874 8.220383769732003e-07
rhand -6.972260092956778 2.0321462048512455e-07 -36.68780446630613
rfingers 7.125022396385991 5.1024341088409163e-08 -3.1892353057445414e-07
rthumb 18.897492480477187 1.5447771905696147e-06 -65.78980959509936
